{
    "asset" : {
        "generator" : "Khronos glTF Blender I/O v0.9.36",
        "version" : "2.0"
    },
    "scene" : 0,
    "scenes" : [
        {
            "name" : "Scene",
            "nodes" : [
                0,
                1
            ]
        }
    ],
    "nodes" : [
        {
            "mesh" : 0,
            "name" : "Cube.001",
            "scale" : [
                1,
                1.3836225271224976,
                1
            ]
        },
        {
            "name" : "\u76f8\u673a",
            "rotation" : [
                0.5572516918182373,
                -0.3920173943042755,
                0.3253520727157593,
                0.6556972861289978
            ],
            "translation" : [
                -8.34534740447998,
                3.653127670288086,
                5.534873008728027
            ]
        }
    ],
    "animations" : [
        {
            "channels" : [
                {
                    "sampler" : 0,
                    "target" : {
                        "node" : 0,
                        "path" : "translation"
                    }
                },
                {
                    "sampler" : 1,
                    "target" : {
                        "node" : 0,
                        "path" : "rotation"
                    }
                },
                {
                    "sampler" : 2,
                    "target" : {
                        "node" : 0,
                        "path" : "scale"
                    }
                }
            ],
            "name" : "Cube.001Action",
            "samplers" : [
                {
                    "input" : 4,
                    "interpolation" : "LINEAR",
                    "output" : 5
                },
                {
                    "input" : 4,
                    "interpolation" : "LINEAR",
                    "output" : 6
                },
                {
                    "input" : 4,
                    "interpolation" : "LINEAR",
                    "output" : 7
                }
            ]
        }
    ],
    "materials" : [
        {
            "emissiveFactor" : [
                1,
                0,
                0
            ],
            "name" : "\u6750\u8d28.002",
            "pbrMetallicRoughness" : {}
        }
    ],
    "meshes" : [
        {
            "name" : "Cube.001",
            "primitives" : [
                {
                    "attributes" : {
                        "POSITION" : 0,
                        "NORMAL" : 1,
                        "TEXCOORD_0" : 2
                    },
                    "indices" : 3,
                    "material" : 0
                }
            ]
        }
    ],
    "accessors" : [
        {
            "bufferView" : 0,
            "componentType" : 5126,
            "count" : 1069,
            "max" : [
                6.958213806152344,
                1,
                0.849880576133728
            ],
            "min" : [
                -0.849880576133728,
                -1,
                -0.849880576133728
            ],
            "type" : "VEC3"
        },
        {
            "bufferView" : 1,
            "componentType" : 5126,
            "count" : 1069,
            "type" : "VEC3"
        },
        {
            "bufferView" : 2,
            "componentType" : 5126,
            "count" : 1069,
            "type" : "VEC2"
        },
        {
            "bufferView" : 3,
            "componentType" : 5123,
            "count" : 2040,
            "type" : "SCALAR"
        },
        {
            "bufferView" : 4,
            "componentType" : 5126,
            "count" : 60,
            "max" : [
                2.5
            ],
            "min" : [
                0.041666666666666664
            ],
            "type" : "SCALAR"
        },
        {
            "bufferView" : 5,
            "componentType" : 5126,
            "count" : 60,
            "type" : "VEC3"
        },
        {
            "bufferView" : 6,
            "componentType" : 5126,
            "count" : 60,
            "type" : "VEC4"
        },
        {
            "bufferView" : 7,
            "componentType" : 5126,
            "count" : 60,
            "type" : "VEC3"
        }
    ],
    "bufferViews" : [
        {
            "buffer" : 0,
            "byteLength" : 12828,
            "byteOffset" : 0
        },
        {
            "buffer" : 0,
            "byteLength" : 12828,
            "byteOffset" : 12828
        },
        {
            "buffer" : 0,
            "byteLength" : 8552,
            "byteOffset" : 25656
        },
        {
            "buffer" : 0,
            "byteLength" : 4080,
            "byteOffset" : 34208
        },
        {
            "buffer" : 0,
            "byteLength" : 240,
            "byteOffset" : 38288
        },
        {
            "buffer" : 0,
            "byteLength" : 720,
            "byteOffset" : 38528
        },
        {
            "buffer" : 0,
            "byteLength" : 960,
            "byteOffset" : 39248
        },
        {
            "buffer" : 0,
            "byteLength" : 720,
            "byteOffset" : 40208
        }
    ],
    "buffers" : [
        {
            "byteLength" : 40928,
            "uri" : "data:application/octet-stream;base64,"
        }
    ]
}
